<svg width="1095" height="248" viewBox="0 0 1095 248" fill="none" xmlns="http://www.w3.org/2000/svg">
<g filter="url(#filter0_d_16_3)">
<path d="M10 66.6386C42.6221 84.9885 95.743 117.442 95.743 117.442C100.361 120.655 109.759 130.333 110.402 143.345C111.044 156.357 110.669 177.817 110.402 186.92M110.402 204.189V234.108M135.703 173.064V223.064M85.9036 219.048V158.406C86.1044 153.252 84.2972 141.458 75.4619 135.514L65.2209 129.49M10 97.3615L44.1365 117.442M10 154.39L25.4618 164.631C29.2771 167.241 34.6988 172.261 35.502 181.699V191.94M10 127.281L46.1446 148.566C50.4953 151.378 60.7229 160.173 60.4016 172.06C60.0803 183.948 60.2677 200.307 60.4016 207M160.402 211.217C160.884 206.076 160.602 144.282 160.402 114.028C160.134 108.272 156.466 95.1125 143.936 88.5261L126.867 78.6868M134.498 52.9839L172.851 76.0763C176.801 78.8876 184.819 87.241 185.301 98.1647C185.783 109.088 185.502 135.246 185.301 146.96L210 133.305V184.51M185.301 167.843V196.759M210 109.811V82.9036C209.799 77.3481 206.546 64.9116 195.141 59.6104L184.498 54.3896M104.177 7L164.016 42.1406M81.4859 21.3692L113.012 40.5341M32.0884 52.9839C45.1058 60.3553 62.6104 70.4538 62.6104 70.4538M55.7831 37.6458L106.787 66.6386L83.494 81.8996L121.044 103.787C125.462 106.665 134.578 115.313 135.703 126.88V147.964M10 179.892L13.012 181.699" stroke="url(#paint0_linear_16_3)" stroke-width="11" stroke-linecap="round" stroke-linejoin="round"/>
</g>
<g filter="url(#filter1_di_16_3)">
<path d="M825.318 121.273C825.318 136.945 822.383 150.368 816.511 161.543C810.688 172.67 802.733 181.192 792.648 187.111C782.61 193.029 771.223 195.989 758.486 195.989C745.749 195.989 734.338 193.029 724.253 187.111C714.215 181.145 706.26 172.598 700.389 161.472C694.565 150.297 691.653 136.898 691.653 121.273C691.653 105.6 694.565 92.2008 700.389 81.0739C706.26 69.8996 714.215 61.3532 724.253 55.4347C734.338 49.5161 745.749 46.5568 758.486 46.5568C771.223 46.5568 782.61 49.5161 792.648 55.4347C802.733 61.3532 810.688 69.8996 816.511 81.0739C822.383 92.2008 825.318 105.6 825.318 121.273ZM798.827 121.273C798.827 110.241 797.098 100.937 793.642 93.3608C790.233 85.7377 785.498 79.9848 779.438 76.1023C773.377 72.1723 766.393 70.2074 758.486 70.2074C750.579 70.2074 743.595 72.1723 737.534 76.1023C731.473 79.9848 726.715 85.7377 723.259 93.3608C719.849 100.937 718.145 110.241 718.145 121.273C718.145 132.305 719.849 141.633 723.259 149.256C726.715 156.831 731.473 162.584 737.534 166.514C743.595 170.397 750.579 172.338 758.486 172.338C766.393 172.338 773.377 170.397 779.438 166.514C785.498 162.584 790.233 156.831 793.642 149.256C797.098 141.633 798.827 132.305 798.827 121.273ZM850.229 194V48.5455H904.775C915.949 48.5455 925.324 50.6288 932.9 54.7955C940.523 58.9621 946.276 64.6913 950.158 71.983C954.088 79.2273 956.053 87.4659 956.053 96.6989C956.053 106.027 954.088 114.312 950.158 121.557C946.228 128.801 940.428 134.507 932.758 138.673C925.087 142.793 915.641 144.852 904.42 144.852H868.269V123.19H900.869C907.403 123.19 912.753 122.054 916.92 119.781C921.086 117.509 924.164 114.384 926.153 110.406C928.189 106.429 929.207 101.86 929.207 96.6989C929.207 91.5379 928.189 86.9924 926.153 83.0625C924.164 79.1326 921.063 76.0786 916.849 73.9006C912.682 71.6752 907.308 70.5625 900.727 70.5625H876.579V194H850.229ZM1057.99 88.5312C1057.33 82.3286 1054.53 77.4991 1049.61 74.0426C1044.73 70.5862 1038.39 68.858 1030.57 68.858C1025.08 68.858 1020.37 69.6866 1016.44 71.3438C1012.51 73.0009 1009.5 75.25 1007.42 78.0909C1005.34 80.9318 1004.27 84.1752 1004.22 87.821C1004.22 90.8513 1004.91 93.4792 1006.28 95.7045C1007.7 97.9299 1009.62 99.8239 1012.04 101.386C1014.45 102.902 1017.13 104.18 1020.06 105.222C1023 106.263 1025.96 107.139 1028.94 107.849L1042.58 111.259C1048.07 112.537 1053.35 114.265 1058.41 116.443C1063.53 118.621 1068.1 121.367 1072.12 124.682C1076.19 127.996 1079.41 131.997 1081.78 136.685C1084.15 141.372 1085.33 146.865 1085.33 153.162C1085.33 161.685 1083.15 169.189 1078.8 175.676C1074.44 182.116 1068.14 187.158 1059.91 190.804C1051.71 194.402 1041.8 196.202 1030.15 196.202C1018.83 196.202 1009.01 194.45 1000.67 190.946C992.387 187.442 985.901 182.329 981.213 175.605C976.573 168.882 974.063 160.69 973.685 151.031H999.608C999.987 156.098 1001.55 160.312 1004.3 163.673C1007.04 167.035 1010.62 169.545 1015.02 171.202C1019.47 172.859 1024.44 173.688 1029.93 173.688C1035.66 173.688 1040.68 172.835 1044.99 171.131C1049.35 169.379 1052.76 166.964 1055.22 163.886C1057.68 160.761 1058.94 157.116 1058.98 152.949C1058.94 149.161 1057.82 146.036 1055.64 143.574C1053.47 141.064 1050.41 138.981 1046.48 137.324C1042.6 135.619 1038.05 134.104 1032.85 132.778L1016.3 128.517C1004.32 125.439 994.849 120.776 987.889 114.526C980.976 108.228 977.52 99.8712 977.52 89.4545C977.52 80.8845 979.84 73.3797 984.48 66.9403C989.168 60.5009 995.536 55.5057 1003.59 51.9545C1011.63 48.3561 1020.75 46.5568 1030.93 46.5568C1041.25 46.5568 1050.29 48.3561 1058.06 51.9545C1065.87 55.5057 1072 60.4536 1076.45 66.7983C1080.91 73.0956 1083.2 80.34 1083.34 88.5312H1057.99Z" fill="#494949"/>
</g>
<g filter="url(#filter2_d_16_3)">
<path d="M276.347 194V48.5455H330.892C342.066 48.5455 351.441 50.4867 359.017 54.3693C366.64 58.2519 372.393 63.697 376.276 70.7045C380.205 77.6648 382.17 85.785 382.17 95.0653C382.17 104.393 380.182 112.49 376.205 119.355C372.275 126.173 366.474 131.453 358.804 135.193C351.134 138.886 341.711 140.733 330.537 140.733H291.688V118.858H326.986C333.52 118.858 338.87 117.958 343.037 116.159C347.204 114.312 350.281 111.637 352.27 108.134C354.306 104.582 355.324 100.226 355.324 95.0653C355.324 89.9044 354.306 85.5009 352.27 81.8551C350.234 78.1619 347.133 75.3684 342.966 73.4744C338.799 71.5331 333.425 70.5625 326.844 70.5625H302.696V194H276.347ZM351.489 128.091L387.497 194H358.094L322.724 128.091H351.489ZM425.104 194H396.979L448.186 48.5455H480.714L531.993 194H503.868L465.018 78.375H463.882L425.104 194ZM426.027 136.969H502.732V158.134H426.027V136.969ZM641.759 94.9943C640.575 91.1591 638.941 87.7263 636.858 84.696C634.822 81.6184 632.36 78.9905 629.472 76.8125C626.631 74.6345 623.364 73.0009 619.67 71.9119C615.977 70.7756 611.953 70.2074 607.597 70.2074C599.784 70.2074 592.824 72.1723 586.716 76.1023C580.608 80.0322 575.802 85.8087 572.298 93.4318C568.842 101.008 567.114 110.241 567.114 121.131C567.114 132.116 568.842 141.42 572.298 149.043C575.755 156.666 580.561 162.466 586.716 166.443C592.871 170.373 600.021 172.338 608.165 172.338C615.551 172.338 621.943 170.918 627.341 168.077C632.786 165.236 636.976 161.211 639.912 156.003C642.848 150.747 644.315 144.592 644.315 137.537L650.281 138.46H610.793V117.864H669.812V135.335C669.812 147.788 667.161 158.56 661.858 167.651C656.555 176.741 649.263 183.749 639.983 188.673C630.703 193.55 620.049 195.989 608.023 195.989C594.623 195.989 582.857 192.982 572.724 186.969C562.639 180.908 554.756 172.314 549.074 161.188C543.439 150.013 540.622 136.756 540.622 121.415C540.622 109.672 542.279 99.1847 545.594 89.9517C548.955 80.7188 553.643 72.8826 559.656 66.4432C565.67 59.9564 572.724 55.0322 580.821 51.6705C588.918 48.2614 597.724 46.5568 607.241 46.5568C615.291 46.5568 622.795 47.7405 629.756 50.108C636.716 52.428 642.895 55.7424 648.293 60.0511C653.738 64.3598 658.212 69.4735 661.716 75.392C665.22 81.3106 667.516 87.8447 668.605 94.9943H641.759Z" fill="url(#paint1_linear_16_3)"/>
</g>
<defs>
<filter id="filter0_d_16_3" x="0.499023" y="1.49915" width="219.001" height="246.109" filterUnits="userSpaceOnUse" color-interpolation-filters="sRGB">
<feFlood flood-opacity="0" result="BackgroundImageFix"/>
<feColorMatrix in="SourceAlpha" type="matrix" values="0 0 0 0 0 0 0 0 0 0 0 0 0 0 0 0 0 0 127 0" result="hardAlpha"/>
<feOffset dy="4"/>
<feGaussianBlur stdDeviation="2"/>
<feComposite in2="hardAlpha" operator="out"/>
<feColorMatrix type="matrix" values="0 0 0 0 0 0 0 0 0 0 0 0 0 0 0 0 0 0 0.25 0"/>
<feBlend mode="normal" in2="BackgroundImageFix" result="effect1_dropShadow_16_3"/>
<feBlend mode="normal" in="SourceGraphic" in2="effect1_dropShadow_16_3" result="shape"/>
</filter>
<filter id="filter1_di_16_3" x="687.653" y="46.5568" width="401.679" height="157.645" filterUnits="userSpaceOnUse" color-interpolation-filters="sRGB">
<feFlood flood-opacity="0" result="BackgroundImageFix"/>
<feColorMatrix in="SourceAlpha" type="matrix" values="0 0 0 0 0 0 0 0 0 0 0 0 0 0 0 0 0 0 127 0" result="hardAlpha"/>
<feOffset dy="4"/>
<feGaussianBlur stdDeviation="2"/>
<feComposite in2="hardAlpha" operator="out"/>
<feColorMatrix type="matrix" values="0 0 0 0 0 0 0 0 0 0 0 0 0 0 0 0 0 0 0.25 0"/>
<feBlend mode="normal" in2="BackgroundImageFix" result="effect1_dropShadow_16_3"/>
<feBlend mode="normal" in="SourceGraphic" in2="effect1_dropShadow_16_3" result="shape"/>
<feColorMatrix in="SourceAlpha" type="matrix" values="0 0 0 0 0 0 0 0 0 0 0 0 0 0 0 0 0 0 127 0" result="hardAlpha"/>
<feOffset dy="4"/>
<feGaussianBlur stdDeviation="2"/>
<feComposite in2="hardAlpha" operator="arithmetic" k2="-1" k3="1"/>
<feColorMatrix type="matrix" values="0 0 0 0 0 0 0 0 0 0 0 0 0 0 0 0 0 0 0.25 0"/>
<feBlend mode="normal" in2="shape" result="effect2_innerShadow_16_3"/>
</filter>
<filter id="filter2_d_16_3" x="272.347" y="46.5568" width="401.466" height="157.432" filterUnits="userSpaceOnUse" color-interpolation-filters="sRGB">
<feFlood flood-opacity="0" result="BackgroundImageFix"/>
<feColorMatrix in="SourceAlpha" type="matrix" values="0 0 0 0 0 0 0 0 0 0 0 0 0 0 0 0 0 0 127 0" result="hardAlpha"/>
<feOffset dy="4"/>
<feGaussianBlur stdDeviation="2"/>
<feComposite in2="hardAlpha" operator="out"/>
<feColorMatrix type="matrix" values="0 0 0 0 0 0 0 0 0 0 0 0 0 0 0 0 0 0 0.25 0"/>
<feBlend mode="normal" in2="BackgroundImageFix" result="effect1_dropShadow_16_3"/>
<feBlend mode="normal" in="SourceGraphic" in2="effect1_dropShadow_16_3" result="shape"/>
</filter>
<linearGradient id="paint0_linear_16_3" x1="110" y1="7" x2="110" y2="234.108" gradientUnits="userSpaceOnUse">
<stop stop-color="#D8BFF6"/>
<stop offset="1" stop-color="#B98FDD"/>
</linearGradient>
<linearGradient id="paint1_linear_16_3" x1="471.5" y1="0" x2="471.5" y2="242" gradientUnits="userSpaceOnUse">
<stop stop-color="#D8BFF6"/>
<stop offset="1" stop-color="#B98FDD"/>
</linearGradient>
</defs>
</svg>
